<?xml version="1.0" standalone="no"?>
<!DOCTYPE svg PUBLIC "-//W3C//DTD SVG 20010904//EN"
 "http://www.w3.org/TR/2001/REC-SVG-20010904/DTD/svg10.dtd">
<svg version="1.0" xmlns="http://www.w3.org/2000/svg"
 width="350.000000pt" height="350.000000pt" viewBox="0 0 350.000000 350.000000"
 preserveAspectRatio="xMidYMid meet">

<g transform="translate(0.000000,350.000000) scale(0.100000,-0.100000)"
fill="#000000" stroke="none">
<path d="M1684 2776 c-17 -8 -44 -31 -60 -52 l-29 -37 -5 -398 c-3 -218 -8
-400 -12 -404 -11 -12 -32 41 -123 314 -49 145 -98 278 -110 295 -49 73 -167
100 -235 53 -44 -29 -69 -74 -76 -134 -5 -42 8 -87 106 -378 121 -358 137
-433 106 -493 -17 -33 -43 -52 -71 -52 -9 0 -50 28 -91 61 -115 94 -187 107
-281 53 -29 -17 -49 -39 -67 -76 -57 -114 -25 -182 149 -323 66 -54 174 -152
240 -219 131 -133 198 -180 322 -226 107 -38 210 -53 339 -48 174 7 300 62
419 184 91 91 142 197 171 348 9 44 22 93 31 110 8 16 94 134 189 262 96 128
179 245 184 259 15 39 12 75 -10 122 -34 75 -117 108 -196 78 -41 -15 -59 -35
-176 -191 -72 -96 -133 -173 -135 -171 -2 2 42 144 97 314 55 171 100 327 100
347 0 96 -80 176 -176 176 -43 0 -105 -31 -133 -66 -11 -14 -57 -139 -101
-278 -44 -138 -87 -264 -95 -281 -12 -26 -14 14 -14 335 -1 218 -5 380 -11
402 -13 44 -52 93 -91 113 -35 19 -114 19 -155 1z m130 -58 c14 -6 35 -30 46
-53 19 -39 20 -61 20 -416 0 -281 3 -380 13 -399 24 -48 80 -33 112 30 7 14
49 142 95 285 89 279 104 309 167 321 66 12 133 -42 133 -109 0 -15 -46 -168
-101 -340 -56 -172 -101 -322 -101 -335 -1 -30 29 -62 57 -62 33 0 51 19 182
195 66 88 128 167 138 175 28 23 90 18 119 -9 31 -29 42 -80 25 -112 -7 -13
-86 -122 -177 -242 -90 -121 -172 -234 -183 -251 -10 -18 -30 -83 -44 -145
-33 -152 -72 -228 -161 -317 -52 -53 -90 -81 -145 -107 -107 -51 -162 -61
-298 -54 -139 6 -208 23 -320 78 -74 37 -103 60 -240 193 -86 84 -202 189
-258 234 -77 62 -104 90 -113 117 -24 72 9 140 81 169 58 23 98 9 197 -70 80
-64 85 -66 128 -61 34 3 55 13 80 38 86 83 78 156 -66 580 -95 280 -111 334
-105 368 11 67 59 100 128 87 62 -12 78 -42 182 -346 103 -304 126 -350 175
-350 23 0 33 7 47 33 16 29 19 74 23 430 l5 399 33 29 c35 32 81 38 126 17z"/>
<path d="M1314 1465 c-10 -26 4 -45 35 -45 49 0 145 -35 206 -75 68 -45 126
-116 151 -182 23 -64 38 -80 58 -63 23 18 20 47 -13 115 -54 112 -148 195
-275 241 -77 28 -154 32 -162 9z"/>
</g>
</svg>
